{
	"asset":
	{
		"version": "2.0",
		"generator": "Unreal Engine 5.4.1"
	},
	"scene": 0,
	"accessors": [
		{
			"bufferView": 0,
			"count": 17217,
			"type": "SCALAR",
			"componentType": 5123
		},
		{
			"bufferView": 1,
			"count": 6244,
			"type": "VEC3",
			"componentType": 5126,
			"min": [ -0.111999996, -0.0590000004, -0.0219999999 ],
			"max": [ 2.02753979e-17, 0.0590000004, 0.0199999996 ]
		},
		{
			"bufferView": 2,
			"count": 6244,
			"type": "VEC3",
			"componentType": 5126
		},
		{
			"bufferView": 3,
			"count": 6244,
			"type": "VEC4",
			"componentType": 5126
		},
		{
			"bufferView": 4,
			"count": 6244,
			"type": "VEC2",
			"componentType": 5126
		},
		{
			"bufferView": 5,
			"count": 6244,
			"type": "VEC2",
			"componentType": 5126
		},
		{
			"bufferView": 6,
			"count": 19122,
			"type": "SCALAR",
			"componentType": 5123
		},
		{
			"bufferView": 7,
			"count": 7207,
			"type": "VEC3",
			"componentType": 5126,
			"min": [ -0.00400000019, -0.0590000004, -0.0219999999 ],
			"max": [ 0.111999996, 0.0590000004, 0.0199999996 ]
		},
		{
			"bufferView": 8,
			"count": 7207,
			"type": "VEC3",
			"componentType": 5126
		},
		{
			"bufferView": 9,
			"count": 7207,
			"type": "VEC4",
			"componentType": 5126
		},
		{
			"bufferView": 10,
			"count": 7207,
			"type": "VEC2",
			"componentType": 5126
		},
		{
			"bufferView": 11,
			"count": 7207,
			"type": "VEC2",
			"componentType": 5126
		},
		{
			"bufferView": 12,
			"count": 5526,
			"type": "SCALAR",
			"componentType": 5123
		},
		{
			"bufferView": 13,
			"count": 2060,
			"type": "VEC3",
			"componentType": 5126,
			"min": [ -0.0825123638, -0.0275132451, 0.0170000009 ],
			"max": [ 0.0825123638, 0.027512366, 0.0199999996 ]
		},
		{
			"bufferView": 14,
			"count": 2060,
			"type": "VEC3",
			"componentType": 5126
		},
		{
			"bufferView": 15,
			"count": 2060,
			"type": "VEC4",
			"componentType": 5126
		},
		{
			"bufferView": 16,
			"count": 2060,
			"type": "VEC2",
			"componentType": 5126
		},
		{
			"bufferView": 17,
			"count": 2060,
			"type": "VEC2",
			"componentType": 5126
		},
		{
			"bufferView": 18,
			"count": 8412,
			"type": "SCALAR",
			"componentType": 5123
		},
		{
			"bufferView": 19,
			"count": 3169,
			"type": "VEC3",
			"componentType": 5126,
			"min": [ -0.0825517327, -0.027551733, 0.00505000027 ],
			"max": [ 0.0825517327, 0.027551733, 0.0154500017 ]
		},
		{
			"bufferView": 20,
			"count": 3169,
			"type": "VEC3",
			"componentType": 5126
		},
		{
			"bufferView": 21,
			"count": 3169,
			"type": "VEC4",
			"componentType": 5126
		},
		{
			"bufferView": 22,
			"count": 3169,
			"type": "VEC2",
			"componentType": 5126
		},
		{
			"bufferView": 23,
			"count": 3169,
			"type": "VEC2",
			"componentType": 5126
		},
		{
			"bufferView": 24,
			"count": 588,
			"type": "SCALAR",
			"componentType": 5121
		},
		{
			"bufferView": 25,
			"count": 224,
			"type": "VEC3",
			"componentType": 5126,
			"min": [ 0.0221217535, -0.020507941, 0.0189999994 ],
			"max": [ 0.0296294205, -0.0103744091, 0.0198999997 ]
		},
		{
			"bufferView": 26,
			"count": 224,
			"type": "VEC3",
			"componentType": 5126
		},
		{
			"bufferView": 27,
			"count": 224,
			"type": "VEC4",
			"componentType": 5126
		},
		{
			"bufferView": 28,
			"count": 224,
			"type": "VEC2",
			"componentType": 5126
		},
		{
			"bufferView": 29,
			"count": 224,
			"type": "VEC2",
			"componentType": 5126
		},
		{
			"bufferView": 30,
			"count": 846,
			"type": "SCALAR",
			"componentType": 5123
		},
		{
			"bufferView": 31,
			"count": 314,
			"type": "VEC3",
			"componentType": 5126,
			"min": [ 0.012514282, -0.0205450393, 0.0189999994 ],
			"max": [ 0.0200948361, -0.0104057621, 0.0198999997 ]
		},
		{
			"bufferView": 32,
			"count": 314,
			"type": "VEC3",
			"componentType": 5126
		},
		{
			"bufferView": 33,
			"count": 314,
			"type": "VEC4",
			"componentType": 5126
		},
		{
			"bufferView": 34,
			"count": 314,
			"type": "VEC2",
			"componentType": 5126
		},
		{
			"bufferView": 35,
			"count": 314,
			"type": "VEC2",
			"componentType": 5126
		},
		{
			"bufferView": 36,
			"count": 204,
			"type": "SCALAR",
			"componentType": 5121
		},
		{
			"bufferView": 37,
			"count": 84,
			"type": "VEC3",
			"componentType": 5126,
			"min": [ -0.0115656555, -0.0124130286, 0.0189999994 ],
			"max": [ -0.0101697724, -0.011006739, 0.0198999997 ]
		},
		{
			"bufferView": 38,
			"count": 84,
			"type": "VEC3",
			"componentType": 5126
		},
		{
			"bufferView": 39,
			"count": 84,
			"type": "VEC4",
			"componentType": 5126
		},
		{
			"bufferView": 40,
			"count": 84,
			"type": "VEC2",
			"componentType": 5126
		},
		{
			"bufferView": 41,
			"count": 84,
			"type": "VEC2",
			"componentType": 5126
		},
		{
			"bufferView": 42,
			"count": 132,
			"type": "SCALAR",
			"componentType": 5121
		},
		{
			"bufferView": 43,
			"count": 72,
			"type": "VEC3",
			"componentType": 5126,
			"min": [ -0.0201197956, -0.0204123668, 0.0189999994 ],
			"max": [ -0.0133215366, -0.0103234947, 0.0198999997 ]
		},
		{
			"bufferView": 44,
			"count": 72,
			"type": "VEC3",
			"componentType": 5126
		},
		{
			"bufferView": 45,
			"count": 72,
			"type": "VEC4",
			"componentType": 5126
		},
		{
			"bufferView": 46,
			"count": 72,
			"type": "VEC2",
			"componentType": 5126
		},
		{
			"bufferView": 47,
			"count": 72,
			"type": "VEC2",
			"componentType": 5126
		},
		{
			"bufferView": 48,
			"count": 132,
			"type": "SCALAR",
			"componentType": 5121
		},
		{
			"bufferView": 49,
			"count": 72,
			"type": "VEC3",
			"componentType": 5126,
			"min": [ -0.0296450388, -0.0204123668, 0.0189999994 ],
			"max": [ -0.0224219561, -0.0106123658, 0.0198999997 ]
		},
		{
			"bufferView": 50,
			"count": 72,
			"type": "VEC3",
			"componentType": 5126
		},
		{
			"bufferView": 51,
			"count": 72,
			"type": "VEC4",
			"componentType": 5126
		},
		{
			"bufferView": 52,
			"count": 72,
			"type": "VEC2",
			"componentType": 5126
		},
		{
			"bufferView": 53,
			"count": 72,
			"type": "VEC2",
			"componentType": 5126
		},
		{
			"bufferView": 54,
			"count": 432,
			"type": "SCALAR",
			"componentType": 5121
		},
		{
			"bufferView": 55,
			"count": 170,
			"type": "VEC3",
			"componentType": 5126,
			"min": [ 0.0025205866, -0.0205302332, 0.0189999994 ],
			"max": [ 0.0104392944, -0.0103514045, 0.0198999997 ]
		},
		{
			"bufferView": 56,
			"count": 170,
			"type": "VEC3",
			"componentType": 5126
		},
		{
			"bufferView": 57,
			"count": 170,
			"type": "VEC4",
			"componentType": 5126
		},
		{
			"bufferView": 58,
			"count": 170,
			"type": "VEC2",
			"componentType": 5126
		},
		{
			"bufferView": 59,
			"count": 170,
			"type": "VEC2",
			"componentType": 5126
		},
		{
			"bufferView": 60,
			"count": 72,
			"type": "SCALAR",
			"componentType": 5121
		},
		{
			"bufferView": 61,
			"count": 42,
			"type": "VEC3",
			"componentType": 5126,
			"min": [ -0.00248795259, -0.0204123668, 0.0189999994 ],
			"max": [ -3.84576924e-05, -0.0104846153, 0.0198999997 ]
		},
		{
			"bufferView": 62,
			"count": 42,
			"type": "VEC3",
			"componentType": 5126
		},
		{
			"bufferView": 63,
			"count": 42,
			"type": "VEC4",
			"componentType": 5126
		},
		{
			"bufferView": 64,
			"count": 42,
			"type": "VEC2",
			"componentType": 5126
		},
		{
			"bufferView": 65,
			"count": 42,
			"type": "VEC2",
			"componentType": 5126
		},
		{
			"bufferView": 66,
			"count": 36,
			"type": "SCALAR",
			"componentType": 5121
		},
		{
			"bufferView": 67,
			"count": 24,
			"type": "VEC3",
			"componentType": 5126,
			"min": [ -0.0114536295, -0.0204123668, 0.0189999994 ],
			"max": [ -0.0103072347, -0.0136467787, 0.0198999997 ]
		},
		{
			"bufferView": 68,
			"count": 24,
			"type": "VEC3",
			"componentType": 5126
		},
		{
			"bufferView": 69,
			"count": 24,
			"type": "VEC4",
			"componentType": 5126
		},
		{
			"bufferView": 70,
			"count": 24,
			"type": "VEC2",
			"componentType": 5126
		},
		{
			"bufferView": 71,
			"count": 24,
			"type": "VEC2",
			"componentType": 5126
		},
		{
			"bufferView": 72,
			"count": 780,
			"type": "SCALAR",
			"componentType": 5123
		},
		{
			"bufferView": 73,
			"count": 304,
			"type": "VEC3",
			"componentType": 5126,
			"min": [ -0.0960000008, -0.0590000004, -0.0229999982 ],
			"max": [ 0.0960000008, 0.0590000004, 0.0180000011 ]
		},
		{
			"bufferView": 74,
			"count": 304,
			"type": "VEC3",
			"componentType": 5126
		},
		{
			"bufferView": 75,
			"count": 304,
			"type": "VEC4",
			"componentType": 5126
		},
		{
			"bufferView": 76,
			"count": 304,
			"type": "VEC2",
			"componentType": 5126
		},
		{
			"bufferView": 77,
			"count": 304,
			"type": "VEC2",
			"componentType": 5126
		}
	],
	"buffers": [
		{
			"uri": "multigraphic.bin",
			"byteLength": 1224620
		}
	],
	"bufferViews": [
		{
			"buffer": 0,
			"byteLength": 34434,
			"target": 34963
		},
		{
			"buffer": 0,
			"byteLength": 74928,
			"byteOffset": 34436,
			"target": 34962
		},
		{
			"buffer": 0,
			"byteLength": 74928,
			"byteOffset": 109364,
			"target": 34962
		},
		{
			"buffer": 0,
			"byteLength": 99904,
			"byteOffset": 184292,
			"target": 34962
		},
		{
			"buffer": 0,
			"byteLength": 49952,
			"byteOffset": 284196,
			"target": 34962
		},
		{
			"buffer": 0,
			"byteLength": 49952,
			"byteOffset": 334148,
			"target": 34962
		},
		{
			"buffer": 0,
			"byteLength": 38244,
			"byteOffset": 384100,
			"target": 34963
		},
		{
			"buffer": 0,
			"byteLength": 86484,
			"byteOffset": 422344,
			"target": 34962
		},
		{
			"buffer": 0,
			"byteLength": 86484,
			"byteOffset": 508828,
			"target": 34962
		},
		{
			"buffer": 0,
			"byteLength": 115312,
			"byteOffset": 595312,
			"target": 34962
		},
		{
			"buffer": 0,
			"byteLength": 57656,
			"byteOffset": 710624,
			"target": 34962
		},
		{
			"buffer": 0,
			"byteLength": 57656,
			"byteOffset": 768280,
			"target": 34962
		},
		{
			"buffer": 0,
			"byteLength": 11052,
			"byteOffset": 825936,
			"target": 34963
		},
		{
			"buffer": 0,
			"byteLength": 24720,
			"byteOffset": 836988,
			"target": 34962
		},
		{
			"buffer": 0,
			"byteLength": 24720,
			"byteOffset": 861708,
			"target": 34962
		},
		{
			"buffer": 0,
			"byteLength": 32960,
			"byteOffset": 886428,
			"target": 34962
		},
		{
			"buffer": 0,
			"byteLength": 16480,
			"byteOffset": 919388,
			"target": 34962
		},
		{
			"buffer": 0,
			"byteLength": 16480,
			"byteOffset": 935868,
			"target": 34962
		},
		{
			"buffer": 0,
			"byteLength": 16824,
			"byteOffset": 952348,
			"target": 34963
		},
		{
			"buffer": 0,
			"byteLength": 38028,
			"byteOffset": 969172,
			"target": 34962
		},
		{
			"buffer": 0,
			"byteLength": 38028,
			"byteOffset": 1007200,
			"target": 34962
		},
		{
			"buffer": 0,
			"byteLength": 50704,
			"byteOffset": 1045228,
			"target": 34962
		},
		{
			"buffer": 0,
			"byteLength": 25352,
			"byteOffset": 1095932,
			"target": 34962
		},
		{
			"buffer": 0,
			"byteLength": 25352,
			"byteOffset": 1121284,
			"target": 34962
		},
		{
			"buffer": 0,
			"byteLength": 588,
			"byteOffset": 1146636,
			"target": 34963
		},
		{
			"buffer": 0,
			"byteLength": 2688,
			"byteOffset": 1147224,
			"target": 34962
		},
		{
			"buffer": 0,
			"byteLength": 2688,
			"byteOffset": 1149912,
			"target": 34962
		},
		{
			"buffer": 0,
			"byteLength": 3584,
			"byteOffset": 1152600,
			"target": 34962
		},
		{
			"buffer": 0,
			"byteLength": 1792,
			"byteOffset": 1156184,
			"target": 34962
		},
		{
			"buffer": 0,
			"byteLength": 1792,
			"byteOffset": 1157976,
			"target": 34962
		},
		{
			"buffer": 0,
			"byteLength": 1692,
			"byteOffset": 1159768,
			"target": 34963
		},
		{
			"buffer": 0,
			"byteLength": 3768,
			"byteOffset": 1161460,
			"target": 34962
		},
		{
			"buffer": 0,
			"byteLength": 3768,
			"byteOffset": 1165228,
			"target": 34962
		},
		{
			"buffer": 0,
			"byteLength": 5024,
			"byteOffset": 1168996,
			"target": 34962
		},
		{
			"buffer": 0,
			"byteLength": 2512,
			"byteOffset": 1174020,
			"target": 34962
		},
		{
			"buffer": 0,
			"byteLength": 2512,
			"byteOffset": 1176532,
			"target": 34962
		},
		{
			"buffer": 0,
			"byteLength": 204,
			"byteOffset": 1179044,
			"target": 34963
		},
		{
			"buffer": 0,
			"byteLength": 1008,
			"byteOffset": 1179248,
			"target": 34962
		},
		{
			"buffer": 0,
			"byteLength": 1008,
			"byteOffset": 1180256,
			"target": 34962
		},
		{
			"buffer": 0,
			"byteLength": 1344,
			"byteOffset": 1181264,
			"target": 34962
		},
		{
			"buffer": 0,
			"byteLength": 672,
			"byteOffset": 1182608,
			"target": 34962
		},
		{
			"buffer": 0,
			"byteLength": 672,
			"byteOffset": 1183280,
			"target": 34962
		},
		{
			"buffer": 0,
			"byteLength": 132,
			"byteOffset": 1183952,
			"target": 34963
		},
		{
			"buffer": 0,
			"byteLength": 864,
			"byteOffset": 1184084,
			"target": 34962
		},
		{
			"buffer": 0,
			"byteLength": 864,
			"byteOffset": 1184948,
			"target": 34962
		},
		{
			"buffer": 0,
			"byteLength": 1152,
			"byteOffset": 1185812,
			"target": 34962
		},
		{
			"buffer": 0,
			"byteLength": 576,
			"byteOffset": 1186964,
			"target": 34962
		},
		{
			"buffer": 0,
			"byteLength": 576,
			"byteOffset": 1187540,
			"target": 34962
		},
		{
			"buffer": 0,
			"byteLength": 132,
			"byteOffset": 1188116,
			"target": 34963
		},
		{
			"buffer": 0,
			"byteLength": 864,
			"byteOffset": 1188248,
			"target": 34962
		},
		{
			"buffer": 0,
			"byteLength": 864,
			"byteOffset": 1189112,
			"target": 34962
		},
		{
			"buffer": 0,
			"byteLength": 1152,
			"byteOffset": 1189976,
			"target": 34962
		},
		{
			"buffer": 0,
			"byteLength": 576,
			"byteOffset": 1191128,
			"target": 34962
		},
		{
			"buffer": 0,
			"byteLength": 576,
			"byteOffset": 1191704,
			"target": 34962
		},
		{
			"buffer": 0,
			"byteLength": 432,
			"byteOffset": 1192280,
			"target": 34963
		},
		{
			"buffer": 0,
			"byteLength": 2040,
			"byteOffset": 1192712,
			"target": 34962
		},
		{
			"buffer": 0,
			"byteLength": 2040,
			"byteOffset": 1194752,
			"target": 34962
		},
		{
			"buffer": 0,
			"byteLength": 2720,
			"byteOffset": 1196792,
			"target": 34962
		},
		{
			"buffer": 0,
			"byteLength": 1360,
			"byteOffset": 1199512,
			"target": 34962
		},
		{
			"buffer": 0,
			"byteLength": 1360,
			"byteOffset": 1200872,
			"target": 34962
		},
		{
			"buffer": 0,
			"byteLength": 72,
			"byteOffset": 1202232,
			"target": 34963
		},
		{
			"buffer": 0,
			"byteLength": 504,
			"byteOffset": 1202304,
			"target": 34962
		},
		{
			"buffer": 0,
			"byteLength": 504,
			"byteOffset": 1202808,
			"target": 34962
		},
		{
			"buffer": 0,
			"byteLength": 672,
			"byteOffset": 1203312,
			"target": 34962
		},
		{
			"buffer": 0,
			"byteLength": 336,
			"byteOffset": 1203984,
			"target": 34962
		},
		{
			"buffer": 0,
			"byteLength": 336,
			"byteOffset": 1204320,
			"target": 34962
		},
		{
			"buffer": 0,
			"byteLength": 36,
			"byteOffset": 1204656,
			"target": 34963
		},
		{
			"buffer": 0,
			"byteLength": 288,
			"byteOffset": 1204692,
			"target": 34962
		},
		{
			"buffer": 0,
			"byteLength": 288,
			"byteOffset": 1204980,
			"target": 34962
		},
		{
			"buffer": 0,
			"byteLength": 384,
			"byteOffset": 1205268,
			"target": 34962
		},
		{
			"buffer": 0,
			"byteLength": 192,
			"byteOffset": 1205652,
			"target": 34962
		},
		{
			"buffer": 0,
			"byteLength": 192,
			"byteOffset": 1205844,
			"target": 34962
		},
		{
			"buffer": 0,
			"byteLength": 1560,
			"byteOffset": 1206036,
			"target": 34963
		},
		{
			"buffer": 0,
			"byteLength": 3648,
			"byteOffset": 1207596,
			"target": 34962
		},
		{
			"buffer": 0,
			"byteLength": 3648,
			"byteOffset": 1211244,
			"target": 34962
		},
		{
			"buffer": 0,
			"byteLength": 4864,
			"byteOffset": 1214892,
			"target": 34962
		},
		{
			"buffer": 0,
			"byteLength": 2432,
			"byteOffset": 1219756,
			"target": 34962
		},
		{
			"buffer": 0,
			"byteLength": 2432,
			"byteOffset": 1222188,
			"target": 34962
		}
	],
	"materials": [
		{
			"name": "color_ff6666ff",
			"pbrMetallicRoughness":
			{
				"baseColorFactor": [ 0.0497069992, 0.187821001, 0.366252989, 1 ],
				"metallicFactor": 0,
				"roughnessFactor": 0.5
			}
		},
		{
			"name": "color_9ca7aaff",
			"pbrMetallicRoughness":
			{
				"baseColorFactor": [ 0.266355991, 0.44520101, 0.0295570008, 1 ],
				"metallicFactor": 0,
				"roughnessFactor": 0.5
			}
		},
		{
			"name": "color_dfdfdfff",
			"pbrMetallicRoughness":
			{
				"baseColorFactor": [ 0.73791039, 0.73791039, 0.73791039, 1 ],
				"metallicFactor": 0,
				"roughnessFactor": 0.5
			}
		},
		{
			"name": "color_0b0b0bff",
			"pbrMetallicRoughness":
			{
				"baseColorFactor": [ 0.00334653561, 0.00334653561, 0.00334653561, 1 ],
				"metallicFactor": 0,
				"roughnessFactor": 0.5
			}
		},
		{
			"name": "color_ffffffff",
			"pbrMetallicRoughness":
			{
				"metallicFactor": 0,
				"roughnessFactor": 0.5
			}
		}
	],
	"meshes": [
		{
			"name": "Holder1_body1",
			"primitives": [
				{
					"attributes":
					{
						"POSITION": 1,
						"NORMAL": 2,
						"TANGENT": 3,
						"TEXCOORD_0": 4,
						"TEXCOORD_1": 5
					},
					"indices": 0,
					"material": 0
				}
			]
		},
		{
			"name": "Holder1_body2",
			"primitives": [
				{
					"attributes":
					{
						"POSITION": 7,
						"NORMAL": 8,
						"TANGENT": 9,
						"TEXCOORD_0": 10,
						"TEXCOORD_1": 11
					},
					"indices": 6,
					"material": 0
				}
			]
		},
		{
			"name": "Holder1_body3",
			"primitives": [
				{
					"attributes":
					{
						"POSITION": 13,
						"NORMAL": 14,
						"TANGENT": 15,
						"TEXCOORD_0": 16,
						"TEXCOORD_1": 17
					},
					"indices": 12,
					"material": 1
				}
			]
		},
		{
			"name": "Holder1_body4",
			"primitives": [
				{
					"attributes":
					{
						"POSITION": 19,
						"NORMAL": 20,
						"TANGENT": 21,
						"TEXCOORD_0": 22,
						"TEXCOORD_1": 23
					},
					"indices": 18,
					"material": 2
				}
			]
		},
		{
			"name": "Holder1_body5",
			"primitives": [
				{
					"attributes":
					{
						"POSITION": 25,
						"NORMAL": 26,
						"TANGENT": 27,
						"TEXCOORD_0": 28,
						"TEXCOORD_1": 29
					},
					"indices": 24,
					"material": 3
				}
			]
		},
		{
			"name": "Holder1_body6",
			"primitives": [
				{
					"attributes":
					{
						"POSITION": 31,
						"NORMAL": 32,
						"TANGENT": 33,
						"TEXCOORD_0": 34,
						"TEXCOORD_1": 35
					},
					"indices": 30,
					"material": 3
				}
			]
		},
		{
			"name": "Holder1_body7",
			"primitives": [
				{
					"attributes":
					{
						"POSITION": 37,
						"NORMAL": 38,
						"TANGENT": 39,
						"TEXCOORD_0": 40,
						"TEXCOORD_1": 41
					},
					"indices": 36,
					"material": 3
				}
			]
		},
		{
			"name": "Holder1_body8",
			"primitives": [
				{
					"attributes":
					{
						"POSITION": 43,
						"NORMAL": 44,
						"TANGENT": 45,
						"TEXCOORD_0": 46,
						"TEXCOORD_1": 47
					},
					"indices": 42,
					"material": 3
				}
			]
		},
		{
			"name": "Holder1_body9",
			"primitives": [
				{
					"attributes":
					{
						"POSITION": 49,
						"NORMAL": 50,
						"TANGENT": 51,
						"TEXCOORD_0": 52,
						"TEXCOORD_1": 53
					},
					"indices": 48,
					"material": 3
				}
			]
		},
		{
			"name": "Holder1_body10",
			"primitives": [
				{
					"attributes":
					{
						"POSITION": 55,
						"NORMAL": 56,
						"TANGENT": 57,
						"TEXCOORD_0": 58,
						"TEXCOORD_1": 59
					},
					"indices": 54,
					"material": 3
				}
			]
		},
		{
			"name": "Holder1_body11",
			"primitives": [
				{
					"attributes":
					{
						"POSITION": 61,
						"NORMAL": 62,
						"TANGENT": 63,
						"TEXCOORD_0": 64,
						"TEXCOORD_1": 65
					},
					"indices": 60,
					"material": 3
				}
			]
		},
		{
			"name": "Holder1_body12",
			"primitives": [
				{
					"attributes":
					{
						"POSITION": 67,
						"NORMAL": 68,
						"TANGENT": 69,
						"TEXCOORD_0": 70,
						"TEXCOORD_1": 71
					},
					"indices": 66,
					"material": 3
				}
			]
		},
		{
			"name": "NKE_Multi_body1",
			"primitives": [
				{
					"attributes":
					{
						"POSITION": 73,
						"NORMAL": 74,
						"TANGENT": 75,
						"TEXCOORD_0": 76,
						"TEXCOORD_1": 77
					},
					"indices": 72,
					"material": 4
				}
			]
		}
	],
	"nodes": [
		{
			"name": "Brush1",
			"translation": [ -0.899999976, 0.199999988, 1.10000002 ]
		},
		{
			"name": "PostProcessVolume",
			"scale": [ 10, 10, 10 ]
		},
		{
			"name": "ExponentialHeightFog",
			"translation": [ -5.79999971, 4.0999999, 1.5999999 ]
		},
		{
			"name": "SunSky",
			"translation": [ 0, 0.199999988, 0 ],
			"children": [ 4, 5, 7, 8 ]
		},
		{
			"name": "SkyLight",
			"translation": [ 0, 1.5, 0 ]
		},
		{
			"name": "DirectionalLight",
			"translation": [ 0, 1, 0 ],
			"rotation": [ 0.920924902, -0.386992544, 0.0425889343, -0.0178967901 ],
			"children": [ 6 ]
		},
		{
			"name": "DirectionalLight",
			"rotation": [ -0, -0.707106829, 0, 0.707106769 ],
			"extensions":
			{
				"KHR_lights_punctual":
				{
					"light": 0
				}
			}
		},
		{
			"name": "SkyAtmosphere"
		},
		{
			"name": "VolumetricCloud"
		},
		{
			"name": "VolumetricCloud",
			"translation": [ 0, 2.5999999, 0 ]
		},
		{
			"name": "DefaultPhysicsVolume0"
		},
		{
			"name": "AbstractNavData-Default"
		},
		{
			"name": "MultiGameBoy",
			"children": [ 13 ]
		},
		{
			"name": "MultiGameBoy",
			"children": [ 14, 27 ]
		},
		{
			"name": "Holder1__refset_Entire_Part",
			"children": [ 15, 16, 17, 18, 19, 20, 21, 22, 23, 24, 25, 26 ]
		},
		{
			"name": "Holder1_body1",
			"mesh": 0
		},
		{
			"name": "Holder1_body2",
			"mesh": 1
		},
		{
			"name": "Holder1_body3",
			"mesh": 2
		},
		{
			"name": "Holder1_body4",
			"mesh": 3
		},
		{
			"name": "Holder1_body5",
			"mesh": 4
		},
		{
			"name": "Holder1_body6",
			"mesh": 5
		},
		{
			"name": "Holder1_body7",
			"mesh": 6
		},
		{
			"name": "Holder1_body8",
			"mesh": 7
		},
		{
			"name": "Holder1_body9",
			"mesh": 8
		},
		{
			"name": "Holder1_body10",
			"mesh": 9
		},
		{
			"name": "Holder1_body11",
			"scale": [ 1, 1, 1.00249994 ],
			"mesh": 10
		},
		{
			"name": "Holder1_body12",
			"mesh": 11
		},
		{
			"name": "NKE_Multi__refset_MODEL",
			"children": [ 28, 29 ]
		},
		{
			"name": "NKE_Multi_body1",
			"mesh": 12
		},
		{
			"name": "DecalMaterial",
			"translation": [ 0, 0, -0.099999994 ],
			"rotation": [ 0.5, -0.5, 0.5, 0.5 ],
			"scale": [ 0.100000001, 0.0500000007, 0.0399999991 ]
		}
	],
	"scenes": [
		{
			"name": "Main",
			"nodes": [ 0, 1, 2, 3, 9, 10, 11, 12 ]
		}
	],
	"extensions":
	{
		"KHR_lights_punctual":
		{
			"lights": [
				{
					"name": "DirectionalLight",
					"type": "directional",
					"intensity": 75000
				}
			]
		}
	},
	"extensionsUsed": [
		"KHR_lights_punctual"
	]
}